<mxfile host="app.diagrams.net" agent="Mozilla/5.0 (Windows NT 10.0; Win64; x64) AppleWebKit/537.36 (KHTML, like Gecko) Chrome/133.0.0.0 Safari/537.36" version="26.0.12">
  <diagram id="C5RBs43oDa-KdzZeNtuy" name="Page-1">
    <mxGraphModel dx="949" dy="864" grid="1" gridSize="10" guides="1" tooltips="1" connect="1" arrows="1" fold="1" page="1" pageScale="1" pageWidth="827" pageHeight="1169" math="0" shadow="0">
      <root>
        <mxCell id="WIyWlLk6GJQsqaUBKTNV-0" />
        <mxCell id="WIyWlLk6GJQsqaUBKTNV-1" parent="WIyWlLk6GJQsqaUBKTNV-0" />
        <mxCell id="YxFF9I3yHwWkutH-7DZI-18" style="edgeStyle=orthogonalEdgeStyle;rounded=0;orthogonalLoop=1;jettySize=auto;html=1;exitX=0.5;exitY=1;exitDx=0;exitDy=0;entryX=0;entryY=0;entryDx=0;entryDy=0;" edge="1" parent="WIyWlLk6GJQsqaUBKTNV-1" source="YxFF9I3yHwWkutH-7DZI-1" target="YxFF9I3yHwWkutH-7DZI-8">
          <mxGeometry relative="1" as="geometry" />
        </mxCell>
        <mxCell id="YxFF9I3yHwWkutH-7DZI-1" value="num.tsv" style="shape=dataStorage;whiteSpace=wrap;html=1;fixedSize=1;" vertex="1" parent="WIyWlLk6GJQsqaUBKTNV-1">
          <mxGeometry x="40" y="40" width="100" height="80" as="geometry" />
        </mxCell>
        <mxCell id="YxFF9I3yHwWkutH-7DZI-2" value="num.tsv" style="shape=dataStorage;whiteSpace=wrap;html=1;fixedSize=1;" vertex="1" parent="WIyWlLk6GJQsqaUBKTNV-1">
          <mxGeometry x="160" y="40" width="100" height="80" as="geometry" />
        </mxCell>
        <mxCell id="YxFF9I3yHwWkutH-7DZI-20" style="edgeStyle=orthogonalEdgeStyle;rounded=0;orthogonalLoop=1;jettySize=auto;html=1;entryX=1;entryY=0;entryDx=0;entryDy=0;" edge="1" parent="WIyWlLk6GJQsqaUBKTNV-1" source="YxFF9I3yHwWkutH-7DZI-3" target="YxFF9I3yHwWkutH-7DZI-8">
          <mxGeometry relative="1" as="geometry" />
        </mxCell>
        <mxCell id="YxFF9I3yHwWkutH-7DZI-3" value="num.tsv" style="shape=dataStorage;whiteSpace=wrap;html=1;fixedSize=1;" vertex="1" parent="WIyWlLk6GJQsqaUBKTNV-1">
          <mxGeometry x="280" y="40" width="100" height="80" as="geometry" />
        </mxCell>
        <mxCell id="YxFF9I3yHwWkutH-7DZI-15" style="edgeStyle=orthogonalEdgeStyle;rounded=0;orthogonalLoop=1;jettySize=auto;html=1;exitX=0.5;exitY=1;exitDx=0;exitDy=0;entryX=0;entryY=0;entryDx=0;entryDy=0;" edge="1" parent="WIyWlLk6GJQsqaUBKTNV-1" source="YxFF9I3yHwWkutH-7DZI-4" target="YxFF9I3yHwWkutH-7DZI-10">
          <mxGeometry relative="1" as="geometry" />
        </mxCell>
        <mxCell id="YxFF9I3yHwWkutH-7DZI-4" value="sub.tsv" style="shape=dataStorage;whiteSpace=wrap;html=1;fixedSize=1;" vertex="1" parent="WIyWlLk6GJQsqaUBKTNV-1">
          <mxGeometry x="440" y="40" width="100" height="80" as="geometry" />
        </mxCell>
        <mxCell id="YxFF9I3yHwWkutH-7DZI-14" style="edgeStyle=orthogonalEdgeStyle;rounded=0;orthogonalLoop=1;jettySize=auto;html=1;entryX=1;entryY=0;entryDx=0;entryDy=0;" edge="1" parent="WIyWlLk6GJQsqaUBKTNV-1" source="YxFF9I3yHwWkutH-7DZI-5" target="YxFF9I3yHwWkutH-7DZI-10">
          <mxGeometry relative="1" as="geometry" />
        </mxCell>
        <mxCell id="YxFF9I3yHwWkutH-7DZI-5" value="sub.tsv" style="shape=dataStorage;whiteSpace=wrap;html=1;fixedSize=1;" vertex="1" parent="WIyWlLk6GJQsqaUBKTNV-1">
          <mxGeometry x="680" y="40" width="100" height="80" as="geometry" />
        </mxCell>
        <mxCell id="YxFF9I3yHwWkutH-7DZI-12" value="" style="edgeStyle=orthogonalEdgeStyle;rounded=0;orthogonalLoop=1;jettySize=auto;html=1;" edge="1" parent="WIyWlLk6GJQsqaUBKTNV-1" source="YxFF9I3yHwWkutH-7DZI-6" target="YxFF9I3yHwWkutH-7DZI-10">
          <mxGeometry relative="1" as="geometry">
            <Array as="points">
              <mxPoint x="610" y="150" />
              <mxPoint x="610" y="150" />
            </Array>
          </mxGeometry>
        </mxCell>
        <mxCell id="YxFF9I3yHwWkutH-7DZI-6" value="sub.tsv" style="shape=dataStorage;whiteSpace=wrap;html=1;fixedSize=1;" vertex="1" parent="WIyWlLk6GJQsqaUBKTNV-1">
          <mxGeometry x="560" y="40" width="100" height="80" as="geometry" />
        </mxCell>
        <mxCell id="YxFF9I3yHwWkutH-7DZI-22" value="" style="edgeStyle=orthogonalEdgeStyle;rounded=0;orthogonalLoop=1;jettySize=auto;html=1;" edge="1" parent="WIyWlLk6GJQsqaUBKTNV-1" source="YxFF9I3yHwWkutH-7DZI-8" target="YxFF9I3yHwWkutH-7DZI-21">
          <mxGeometry relative="1" as="geometry" />
        </mxCell>
        <mxCell id="YxFF9I3yHwWkutH-7DZI-8" value="Drop Unnecessary Columns" style="rounded=0;whiteSpace=wrap;html=1;" vertex="1" parent="WIyWlLk6GJQsqaUBKTNV-1">
          <mxGeometry x="160" y="160" width="120" height="60" as="geometry" />
        </mxCell>
        <mxCell id="YxFF9I3yHwWkutH-7DZI-24" value="" style="edgeStyle=orthogonalEdgeStyle;rounded=0;orthogonalLoop=1;jettySize=auto;html=1;" edge="1" parent="WIyWlLk6GJQsqaUBKTNV-1" source="YxFF9I3yHwWkutH-7DZI-10" target="YxFF9I3yHwWkutH-7DZI-23">
          <mxGeometry relative="1" as="geometry" />
        </mxCell>
        <mxCell id="YxFF9I3yHwWkutH-7DZI-10" value="Combine" style="rounded=0;whiteSpace=wrap;html=1;" vertex="1" parent="WIyWlLk6GJQsqaUBKTNV-1">
          <mxGeometry x="560" y="160" width="120" height="60" as="geometry" />
        </mxCell>
        <mxCell id="YxFF9I3yHwWkutH-7DZI-19" style="edgeStyle=orthogonalEdgeStyle;rounded=0;orthogonalLoop=1;jettySize=auto;html=1;exitX=0.5;exitY=1;exitDx=0;exitDy=0;entryX=0.426;entryY=-0.022;entryDx=0;entryDy=0;entryPerimeter=0;" edge="1" parent="WIyWlLk6GJQsqaUBKTNV-1" source="YxFF9I3yHwWkutH-7DZI-2" target="YxFF9I3yHwWkutH-7DZI-8">
          <mxGeometry relative="1" as="geometry" />
        </mxCell>
        <mxCell id="YxFF9I3yHwWkutH-7DZI-21" value="Combine" style="whiteSpace=wrap;html=1;rounded=0;" vertex="1" parent="WIyWlLk6GJQsqaUBKTNV-1">
          <mxGeometry x="160" y="240" width="120" height="60" as="geometry" />
        </mxCell>
        <mxCell id="YxFF9I3yHwWkutH-7DZI-23" value="Combine" style="rounded=0;whiteSpace=wrap;html=1;" vertex="1" parent="WIyWlLk6GJQsqaUBKTNV-1">
          <mxGeometry x="560" y="240" width="120" height="60" as="geometry" />
        </mxCell>
      </root>
    </mxGraphModel>
  </diagram>
</mxfile>
